<svg width="230" height="231" viewBox="0 0 230 231" fill="none" xmlns="http://www.w3.org/2000/svg">
<g clip-path="url(#clip0_6732_9727)">
<path d="M229.996 118.138C229.996 110.341 229.352 102.502 227.976 94.8321H117.606V139H180.809C178.187 153.245 169.76 165.846 157.42 173.854V202.513H195.127C217.27 182.536 229.996 153.034 229.996 118.138Z" fill="#4285F4"/>
<path d="M117.602 230.202C149.16 230.202 175.775 220.045 195.166 202.512L157.458 173.854C146.968 180.85 133.424 184.811 117.645 184.811C87.1177 184.811 61.2343 164.624 51.9473 137.483H13.0363V167.026C32.9002 205.757 73.3591 230.202 117.602 230.202Z" fill="#34A853"/>
<path d="M51.9078 137.482C47.0063 123.237 47.0063 107.812 51.9078 93.5672V64.0236H13.0398C-3.55647 96.4331 -3.56004 134.617 13.0363 167.026L51.9078 137.482Z" fill="#FBBC04"/>
<path d="M117.602 46.1962C134.284 45.9434 150.407 52.0965 162.489 63.3914L195.897 30.6447C174.743 11.1737 146.667 0.468909 117.602 0.806069C73.3591 0.806069 32.9038 25.2502 13.0398 64.0236L51.9078 93.5672C61.1519 66.3837 87.0747 46.1962 117.602 46.1962Z" fill="#EA4335"/>
</g>
<defs>
<clipPath id="clip0_6732_9727">
<rect width="229.403" height="229.403" fill="white" transform="translate(0.59082 0.79834)"/>
</clipPath>
</defs>
</svg>
