<svg width="12277" height="2996" viewBox="0 0 12277 2996" fill="none" xmlns="http://www.w3.org/2000/svg">
<g filter="url(#filter0_d_6721_9727)">
<mask id="path-1-outside-1_6721_9727" maskUnits="userSpaceOnUse" x="115" y="914" width="8735" height="1167" fill="black">
<rect fill="white" x="115" y="914" width="8735" height="1167"/>
<path d="M449.106 1871.45V1746.89H324.553V1622.34H200V1248.68H324.553V1124.13H449.106V999.578H947.317V1124.13H1071.87V1248.68H822.764V1124.13H573.658V1248.68H449.106V1622.34H573.658V1746.89H822.764V1622.34H1071.87V1746.89H947.317V1871.45H449.106ZM1286.1 1871.45V1746.89H1535.21V1124.13H1410.65V999.578H1784.31V1746.89H2033.42V1871.45H1286.1ZM2496.75 1124.13V999.578H2745.86V1124.13H2496.75ZM2247.65 1871.45V1746.89H2496.75V1373.24H2372.2V1248.68H2745.86V1746.89H2994.96V1871.45H2247.65ZM3084.64 1996V1248.68H3831.96V1373.24H3956.51V1622.34H3831.96V1746.89H3333.75V1996H3084.64ZM3333.75 1622.34H3707.41V1373.24H3333.75V1622.34ZM4170.74 1871.45V1746.89H4046.19V999.578H4295.3V1248.68H4793.51V1373.24H4918.06V1746.89H4793.51V1871.45H4170.74ZM4295.3 1746.89H4668.95V1373.24H4295.3V1746.89ZM5132.29 1871.45V1746.89H5007.74V1373.24H5132.29V1248.68H5755.05V1373.24H5879.61V1746.89H5755.05V1871.45H5132.29ZM5256.84 1746.89H5630.5V1373.24H5256.84V1746.89ZM6342.94 1373.24H6467.5V1497.79H6342.94V1871.45H6093.84V1248.68H6342.94V1373.24ZM6841.15 1248.68V1373.24H6467.5V1248.68H6841.15ZM7055.38 1871.45V1746.89H6930.83V1373.24H7055.38V1248.68H7678.15V1373.24H7802.7V1622.34H7179.94V1746.89H7678.15V1871.45H7055.38ZM7179.94 1497.79H7553.6V1373.24H7179.94V1497.79ZM8016.93 1871.45V1746.89H7892.38V1373.24H8016.93V1248.68H8515.14V999.578H8764.25V1871.45H8016.93ZM8141.49 1746.89H8515.14V1373.24H8141.49V1746.89Z"/>
</mask>
<path d="M449.106 1871.45H364.183V1956.37H449.106V1871.45ZM449.106 1746.89H534.028V1661.97H449.106V1746.89ZM324.553 1746.89H239.63V1831.82H324.553V1746.89ZM324.553 1622.34H409.475V1537.42H324.553V1622.34ZM200 1622.34H115.078V1707.26H200V1622.34ZM200 1248.68V1163.76H115.078V1248.68H200ZM324.553 1248.68V1333.61H409.475V1248.68H324.553ZM324.553 1124.13V1039.21H239.63V1124.13H324.553ZM449.106 1124.13V1209.05H534.028V1124.13H449.106ZM449.106 999.578V914.655H364.183V999.578H449.106ZM947.317 999.578H1032.24V914.655H947.317V999.578ZM947.317 1124.13H862.394V1209.05H947.317V1124.13ZM1071.87 1124.13H1156.79V1039.21H1071.87V1124.13ZM1071.87 1248.68V1333.61H1156.79V1248.68H1071.87ZM822.764 1248.68H737.842V1333.61H822.764V1248.68ZM822.764 1124.13H907.686V1039.21H822.764V1124.13ZM573.658 1124.13V1039.21H488.736V1124.13H573.658ZM573.658 1248.68V1333.61H658.581V1248.68H573.658ZM449.106 1248.68V1163.76H364.183V1248.68H449.106ZM449.106 1622.34H364.183V1707.26H449.106V1622.34ZM573.658 1622.34H658.581V1537.42H573.658V1622.34ZM573.658 1746.89H488.736V1831.82H573.658V1746.89ZM822.764 1746.89V1831.82H907.686V1746.89H822.764ZM822.764 1622.34V1537.42H737.842V1622.34H822.764ZM1071.87 1622.34H1156.79V1537.42H1071.87V1622.34ZM1071.87 1746.89V1831.82H1156.79V1746.89H1071.87ZM947.317 1746.89V1661.97H862.394V1746.89H947.317ZM947.317 1871.45V1956.37H1032.24V1871.45H947.317ZM534.028 1871.45V1746.89H364.183V1871.45H534.028ZM449.106 1661.97H324.553V1831.82H449.106V1661.97ZM409.475 1746.89V1622.34H239.63V1746.89H409.475ZM324.553 1537.42H200V1707.26H324.553V1537.42ZM284.922 1622.34V1248.68H115.078V1622.34H284.922ZM200 1333.61H324.553V1163.76H200V1333.61ZM409.475 1248.68V1124.13H239.63V1248.68H409.475ZM324.553 1209.05H449.106V1039.21H324.553V1209.05ZM534.028 1124.13V999.578H364.183V1124.13H534.028ZM449.106 1084.5H947.317V914.655H449.106V1084.5ZM862.394 999.578V1124.13H1032.24V999.578H862.394ZM947.317 1209.05H1071.87V1039.21H947.317V1209.05ZM986.947 1124.13V1248.68H1156.79V1124.13H986.947ZM1071.87 1163.76H822.764V1333.61H1071.87V1163.76ZM907.686 1248.68V1124.13H737.842V1248.68H907.686ZM822.764 1039.21H573.658V1209.05H822.764V1039.21ZM488.736 1124.13V1248.68H658.581V1124.13H488.736ZM573.658 1163.76H449.106V1333.61H573.658V1163.76ZM364.183 1248.68V1622.34H534.028V1248.68H364.183ZM449.106 1707.26H573.658V1537.42H449.106V1707.26ZM488.736 1622.34V1746.89H658.581V1622.34H488.736ZM573.658 1831.82H822.764V1661.97H573.658V1831.82ZM907.686 1746.89V1622.34H737.842V1746.89H907.686ZM822.764 1707.26H1071.87V1537.42H822.764V1707.26ZM986.947 1622.34V1746.89H1156.79V1622.34H986.947ZM1071.87 1661.97H947.317V1831.82H1071.87V1661.97ZM862.394 1746.89V1871.45H1032.24V1746.89H862.394ZM947.317 1786.52H449.106V1956.37H947.317V1786.52ZM1286.1 1871.45H1201.18V1956.37H1286.1V1871.45ZM1286.1 1746.89V1661.97H1201.18V1746.89H1286.1ZM1535.21 1746.89V1831.82H1620.13V1746.89H1535.21ZM1535.21 1124.13H1620.13V1039.21H1535.21V1124.13ZM1410.65 1124.13H1325.73V1209.05H1410.65V1124.13ZM1410.65 999.578V914.655H1325.73V999.578H1410.65ZM1784.31 999.578H1869.23V914.655H1784.31V999.578ZM1784.31 1746.89H1699.39V1831.82H1784.31V1746.89ZM2033.42 1746.89H2118.34V1661.97H2033.42V1746.89ZM2033.42 1871.45V1956.37H2118.34V1871.45H2033.42ZM1371.02 1871.45V1746.89H1201.18V1871.45H1371.02ZM1286.1 1831.82H1535.21V1661.97H1286.1V1831.82ZM1620.13 1746.89V1124.13H1450.28V1746.89H1620.13ZM1535.21 1039.21H1410.65V1209.05H1535.21V1039.21ZM1495.58 1124.13V999.578H1325.73V1124.13H1495.58ZM1410.65 1084.5H1784.31V914.655H1410.65V1084.5ZM1699.39 999.578V1746.89H1869.23V999.578H1699.39ZM1784.31 1831.82H2033.42V1661.97H1784.31V1831.82ZM1948.49 1746.89V1871.45H2118.34V1746.89H1948.49ZM2033.42 1786.52H1286.1V1956.37H2033.42V1786.52ZM2496.75 1124.13H2411.83V1209.05H2496.75V1124.13ZM2496.75 999.578V914.655H2411.83V999.578H2496.75ZM2745.86 999.578H2830.78V914.655H2745.86V999.578ZM2745.86 1124.13V1209.05H2830.78V1124.13H2745.86ZM2247.65 1871.45H2162.73V1956.37H2247.65V1871.45ZM2247.65 1746.89V1661.97H2162.73V1746.89H2247.65ZM2496.75 1746.89V1831.82H2581.68V1746.89H2496.75ZM2496.75 1373.24H2581.68V1288.31H2496.75V1373.24ZM2372.2 1373.24H2287.28V1458.16H2372.2V1373.24ZM2372.2 1248.68V1163.76H2287.28V1248.68H2372.2ZM2745.86 1248.68H2830.78V1163.76H2745.86V1248.68ZM2745.86 1746.89H2660.94V1831.82H2745.86V1746.89ZM2994.96 1746.89H3079.89V1661.97H2994.96V1746.89ZM2994.96 1871.45V1956.37H3079.89V1871.45H2994.96ZM2581.68 1124.13V999.578H2411.83V1124.13H2581.68ZM2496.75 1084.5H2745.86V914.655H2496.75V1084.5ZM2660.94 999.578V1124.13H2830.78V999.578H2660.94ZM2745.86 1039.21H2496.75V1209.05H2745.86V1039.21ZM2332.57 1871.45V1746.89H2162.73V1871.45H2332.57ZM2247.65 1831.82H2496.75V1661.97H2247.65V1831.82ZM2581.68 1746.89V1373.24H2411.83V1746.89H2581.68ZM2496.75 1288.31H2372.2V1458.16H2496.75V1288.31ZM2457.12 1373.24V1248.68H2287.28V1373.24H2457.12ZM2372.2 1333.61H2745.86V1163.76H2372.2V1333.61ZM2660.94 1248.68V1746.89H2830.78V1248.68H2660.94ZM2745.86 1831.82H2994.96V1661.97H2745.86V1831.82ZM2910.04 1746.89V1871.45H3079.89V1746.89H2910.04ZM2994.96 1786.52H2247.65V1956.37H2994.96V1786.52ZM3084.64 1996H2999.72V2080.92H3084.64V1996ZM3084.64 1248.68V1163.76H2999.72V1248.68H3084.64ZM3831.96 1248.68H3916.88V1163.76H3831.96V1248.68ZM3831.96 1373.24H3747.04V1458.16H3831.96V1373.24ZM3956.51 1373.24H4041.43V1288.31H3956.51V1373.24ZM3956.51 1622.34V1707.26H4041.43V1622.34H3956.51ZM3831.96 1622.34V1537.42H3747.04V1622.34H3831.96ZM3831.96 1746.89V1831.82H3916.88V1746.89H3831.96ZM3333.75 1746.89V1661.97H3248.83V1746.89H3333.75ZM3333.75 1996V2080.92H3418.67V1996H3333.75ZM3333.75 1622.34H3248.83V1707.26H3333.75V1622.34ZM3707.41 1622.34V1707.26H3792.33V1622.34H3707.41ZM3707.41 1373.24H3792.33V1288.31H3707.41V1373.24ZM3333.75 1373.24V1288.31H3248.83V1373.24H3333.75ZM3169.56 1996V1248.68H2999.72V1996H3169.56ZM3084.64 1333.61H3831.96V1163.76H3084.64V1333.61ZM3747.04 1248.68V1373.24H3916.88V1248.68H3747.04ZM3831.96 1458.16H3956.51V1288.31H3831.96V1458.16ZM3871.59 1373.24V1622.34H4041.43V1373.24H3871.59ZM3956.51 1537.42H3831.96V1707.26H3956.51V1537.42ZM3747.04 1622.34V1746.89H3916.88V1622.34H3747.04ZM3831.96 1661.97H3333.75V1831.82H3831.96V1661.97ZM3248.83 1746.89V1996H3418.67V1746.89H3248.83ZM3333.75 1911.08H3084.64V2080.92H3333.75V1911.08ZM3333.75 1707.26H3707.41V1537.42H3333.75V1707.26ZM3792.33 1622.34V1373.24H3622.48V1622.34H3792.33ZM3707.41 1288.31H3333.75V1458.16H3707.41V1288.31ZM3248.83 1373.24V1622.34H3418.67V1373.24H3248.83ZM4170.74 1871.45H4085.82V1956.37H4170.74V1871.45ZM4170.74 1746.89H4255.67V1661.97H4170.74V1746.89ZM4046.19 1746.89H3961.27V1831.82H4046.19V1746.89ZM4046.19 999.578V914.655H3961.27V999.578H4046.19ZM4295.3 999.578H4380.22V914.655H4295.3V999.578ZM4295.3 1248.68H4210.37V1333.61H4295.3V1248.68ZM4793.51 1248.68H4878.43V1163.76H4793.51V1248.68ZM4793.51 1373.24H4708.58V1458.16H4793.51V1373.24ZM4918.06 1373.24H5002.98V1288.31H4918.06V1373.24ZM4918.06 1746.89V1831.82H5002.98V1746.89H4918.06ZM4793.51 1746.89V1661.97H4708.58V1746.89H4793.51ZM4793.51 1871.45V1956.37H4878.43V1871.45H4793.51ZM4295.3 1746.89H4210.37V1831.82H4295.3V1746.89ZM4668.95 1746.89V1831.82H4753.88V1746.89H4668.95ZM4668.95 1373.24H4753.88V1288.31H4668.95V1373.24ZM4295.3 1373.24V1288.31H4210.37V1373.24H4295.3ZM4255.67 1871.45V1746.89H4085.82V1871.45H4255.67ZM4170.74 1661.97H4046.19V1831.82H4170.74V1661.97ZM4131.11 1746.89V999.578H3961.27V1746.89H4131.11ZM4046.19 1084.5H4295.3V914.655H4046.19V1084.5ZM4210.37 999.578V1248.68H4380.22V999.578H4210.37ZM4295.3 1333.61H4793.51V1163.76H4295.3V1333.61ZM4708.58 1248.68V1373.24H4878.43V1248.68H4708.58ZM4793.51 1458.16H4918.06V1288.31H4793.51V1458.16ZM4833.14 1373.24V1746.89H5002.98V1373.24H4833.14ZM4918.06 1661.97H4793.51V1831.82H4918.06V1661.97ZM4708.58 1746.89V1871.45H4878.43V1746.89H4708.58ZM4793.51 1786.52H4170.74V1956.37H4793.51V1786.52ZM4295.3 1831.82H4668.95V1661.97H4295.3V1831.82ZM4753.88 1746.89V1373.24H4584.03V1746.89H4753.88ZM4668.95 1288.31H4295.3V1458.16H4668.95V1288.31ZM4210.37 1373.24V1746.89H4380.22V1373.24H4210.37ZM5132.29 1871.45H5047.37V1956.37H5132.29V1871.45ZM5132.29 1746.89H5217.21V1661.97H5132.29V1746.89ZM5007.74 1746.89H4922.81V1831.82H5007.74V1746.89ZM5007.74 1373.24V1288.31H4922.81V1373.24H5007.74ZM5132.29 1373.24V1458.16H5217.21V1373.24H5132.29ZM5132.29 1248.68V1163.76H5047.37V1248.68H5132.29ZM5755.05 1248.68H5839.98V1163.76H5755.05V1248.68ZM5755.05 1373.24H5670.13V1458.16H5755.05V1373.24ZM5879.61 1373.24H5964.53V1288.31H5879.61V1373.24ZM5879.61 1746.89V1831.82H5964.53V1746.89H5879.61ZM5755.05 1746.89V1661.97H5670.13V1746.89H5755.05ZM5755.05 1871.45V1956.37H5839.98V1871.45H5755.05ZM5256.84 1746.89H5171.92V1831.82H5256.84V1746.89ZM5630.5 1746.89V1831.82H5715.42V1746.89H5630.5ZM5630.5 1373.24H5715.42V1288.31H5630.5V1373.24ZM5256.84 1373.24V1288.31H5171.92V1373.24H5256.84ZM5217.21 1871.45V1746.89H5047.37V1871.45H5217.21ZM5132.29 1661.97H5007.74V1831.82H5132.29V1661.97ZM5092.66 1746.89V1373.24H4922.81V1746.89H5092.66ZM5007.74 1458.16H5132.29V1288.31H5007.74V1458.16ZM5217.21 1373.24V1248.68H5047.37V1373.24H5217.21ZM5132.29 1333.61H5755.05V1163.76H5132.29V1333.61ZM5670.13 1248.68V1373.24H5839.98V1248.68H5670.13ZM5755.05 1458.16H5879.61V1288.31H5755.05V1458.16ZM5794.68 1373.24V1746.89H5964.53V1373.24H5794.68ZM5879.61 1661.97H5755.05V1831.82H5879.61V1661.97ZM5670.13 1746.89V1871.45H5839.98V1746.89H5670.13ZM5755.05 1786.52H5132.29V1956.37H5755.05V1786.52ZM5256.84 1831.82H5630.5V1661.97H5256.84V1831.82ZM5715.42 1746.89V1373.24H5545.58V1746.89H5715.42ZM5630.5 1288.31H5256.84V1458.16H5630.5V1288.31ZM5171.92 1373.24V1746.89H5341.77V1373.24H5171.92ZM6342.94 1373.24H6258.02V1458.16H6342.94V1373.24ZM6467.5 1373.24H6552.42V1288.31H6467.5V1373.24ZM6467.5 1497.79V1582.71H6552.42V1497.79H6467.5ZM6342.94 1497.79V1412.87H6258.02V1497.79H6342.94ZM6342.94 1871.45V1956.37H6427.87V1871.45H6342.94ZM6093.84 1871.45H6008.92V1956.37H6093.84V1871.45ZM6093.84 1248.68V1163.76H6008.92V1248.68H6093.84ZM6342.94 1248.68H6427.87V1163.76H6342.94V1248.68ZM6841.15 1248.68H6926.08V1163.76H6841.15V1248.68ZM6841.15 1373.24V1458.16H6926.08V1373.24H6841.15ZM6467.5 1373.24H6382.57V1458.16H6467.5V1373.24ZM6467.5 1248.68V1163.76H6382.57V1248.68H6467.5ZM6342.94 1458.16H6467.5V1288.31H6342.94V1458.16ZM6382.57 1373.24V1497.79H6552.42V1373.24H6382.57ZM6467.5 1412.87H6342.94V1582.71H6467.5V1412.87ZM6258.02 1497.79V1871.45H6427.87V1497.79H6258.02ZM6342.94 1786.52H6093.84V1956.37H6342.94V1786.52ZM6178.76 1871.45V1248.68H6008.92V1871.45H6178.76ZM6093.84 1333.61H6342.94V1163.76H6093.84V1333.61ZM6258.02 1248.68V1373.24H6427.87V1248.68H6258.02ZM6756.23 1248.68V1373.24H6926.08V1248.68H6756.23ZM6841.15 1288.31H6467.5V1458.16H6841.15V1288.31ZM6552.42 1373.24V1248.68H6382.57V1373.24H6552.42ZM6467.5 1333.61H6841.15V1163.76H6467.5V1333.61ZM7055.38 1871.45H6970.46V1956.37H7055.38V1871.45ZM7055.38 1746.89H7140.31V1661.97H7055.38V1746.89ZM6930.83 1746.89H6845.91V1831.82H6930.83V1746.89ZM6930.83 1373.24V1288.31H6845.91V1373.24H6930.83ZM7055.38 1373.24V1458.16H7140.31V1373.24H7055.38ZM7055.38 1248.68V1163.76H6970.46V1248.68H7055.38ZM7678.15 1248.68H7763.07V1163.76H7678.15V1248.68ZM7678.15 1373.24H7593.23V1458.16H7678.15V1373.24ZM7802.7 1373.24H7887.62V1288.31H7802.7V1373.24ZM7802.7 1622.34V1707.26H7887.62V1622.34H7802.7ZM7179.94 1622.34V1537.42H7095.02V1622.34H7179.94ZM7179.94 1746.89H7095.02V1831.82H7179.94V1746.89ZM7678.15 1746.89H7763.07V1661.97H7678.15V1746.89ZM7678.15 1871.45V1956.37H7763.07V1871.45H7678.15ZM7179.94 1497.79H7095.02V1582.71H7179.94V1497.79ZM7553.6 1497.79V1582.71H7638.52V1497.79H7553.6ZM7553.6 1373.24H7638.52V1288.31H7553.6V1373.24ZM7179.94 1373.24V1288.31H7095.02V1373.24H7179.94ZM7140.31 1871.45V1746.89H6970.46V1871.45H7140.31ZM7055.38 1661.97H6930.83V1831.82H7055.38V1661.97ZM7015.75 1746.89V1373.24H6845.91V1746.89H7015.75ZM6930.83 1458.16H7055.38V1288.31H6930.83V1458.16ZM7140.31 1373.24V1248.68H6970.46V1373.24H7140.31ZM7055.38 1333.61H7678.15V1163.76H7055.38V1333.61ZM7593.23 1248.68V1373.24H7763.07V1248.68H7593.23ZM7678.15 1458.16H7802.7V1288.31H7678.15V1458.16ZM7717.78 1373.24V1622.34H7887.62V1373.24H7717.78ZM7802.7 1537.42H7179.94V1707.26H7802.7V1537.42ZM7095.02 1622.34V1746.89H7264.86V1622.34H7095.02ZM7179.94 1831.82H7678.15V1661.97H7179.94V1831.82ZM7593.23 1746.89V1871.45H7763.07V1746.89H7593.23ZM7678.15 1786.52H7055.38V1956.37H7678.15V1786.52ZM7179.94 1582.71H7553.6V1412.87H7179.94V1582.71ZM7638.52 1497.79V1373.24H7468.67V1497.79H7638.52ZM7553.6 1288.31H7179.94V1458.16H7553.6V1288.31ZM7095.02 1373.24V1497.79H7264.86V1373.24H7095.02ZM8016.93 1871.45H7932.01V1956.37H8016.93V1871.45ZM8016.93 1746.89H8101.85V1661.97H8016.93V1746.89ZM7892.38 1746.89H7807.46V1831.82H7892.38V1746.89ZM7892.38 1373.24V1288.31H7807.46V1373.24H7892.38ZM8016.93 1373.24V1458.16H8101.85V1373.24H8016.93ZM8016.93 1248.68V1163.76H7932.01V1248.68H8016.93ZM8515.14 1248.68V1333.61H8600.07V1248.68H8515.14ZM8515.14 999.578V914.655H8430.22V999.578H8515.14ZM8764.25 999.578H8849.17V914.655H8764.25V999.578ZM8764.25 1871.45V1956.37H8849.17V1871.45H8764.25ZM8141.49 1746.89H8056.56V1831.82H8141.49V1746.89ZM8515.14 1746.89V1831.82H8600.07V1746.89H8515.14ZM8515.14 1373.24H8600.07V1288.31H8515.14V1373.24ZM8141.49 1373.24V1288.31H8056.56V1373.24H8141.49ZM8101.85 1871.45V1746.89H7932.01V1871.45H8101.85ZM8016.93 1661.97H7892.38V1831.82H8016.93V1661.97ZM7977.3 1746.89V1373.24H7807.46V1746.89H7977.3ZM7892.38 1458.16H8016.93V1288.31H7892.38V1458.16ZM8101.85 1373.24V1248.68H7932.01V1373.24H8101.85ZM8016.93 1333.61H8515.14V1163.76H8016.93V1333.61ZM8600.07 1248.68V999.578H8430.22V1248.68H8600.07ZM8515.14 1084.5H8764.25V914.655H8515.14V1084.5ZM8679.33 999.578V1871.45H8849.17V999.578H8679.33ZM8764.25 1786.52H8016.93V1956.37H8764.25V1786.52ZM8141.49 1831.82H8515.14V1661.97H8141.49V1831.82ZM8600.07 1746.89V1373.24H8430.22V1746.89H8600.07ZM8515.14 1288.31H8141.49V1458.16H8515.14V1288.31ZM8056.56 1373.24V1746.89H8226.41V1373.24H8056.56Z" fill="white" mask="url(#path-1-outside-1_6721_9727)"/>
</g>
<mask id="mask0_6721_9727" style="mask-type:alpha" maskUnits="userSpaceOnUse" x="9089" y="0" width="3188" height="2996">
<rect width="3188" height="2996" transform="matrix(-1 0 0 1 12277 0)" fill="#D9D9D9"/>
</mask>
<g mask="url(#mask0_6721_9727)">
<mask id="mask1_6721_9727" style="mask-type:luminance" maskUnits="userSpaceOnUse" x="9578" y="-154" width="3125" height="3125">
<path d="M12602.1 -54V2870.12H9678V-54H12602.1Z" fill="white" stroke="white" stroke-width="200"/>
</mask>
<g mask="url(#mask1_6721_9727)">
<path d="M10803.7 359.73C10858.7 182.408 11054.6 81.2912 11229.3 127.52L11231.3 128.07L11231.6 128.14L11231.9 128.213C11340.6 158.371 11436.9 242.634 11475.1 354.214L11476 356.854L11476.9 359.531L11477.6 362.254C11478.3 365.023 11479.1 367.794 11479.8 370.561C11561 370.594 11645 370.163 11726.2 371.138L11736.6 371.271L11834.5 372.602L11835.2 470.574C11835.4 497.121 11835.8 526.056 11835.8 553.975L11835.8 564.466C11835.9 617.223 11835.2 674.309 11835.2 724.378V824.378H10444V724.378C10444 672.7 10442.7 608.674 10443 553.263V553.243L10443.1 547.978C10443.3 521.603 10443.8 494.542 10444.2 469.328L10445.5 371.193L10543.7 370.695C10631.9 370.248 10715.7 370.828 10800.8 370.604C10801.4 368.244 10802 365.883 10802.6 363.527L10803.1 361.618L10803.7 359.73ZM11137.9 454.83C11137.5 454.837 11137.4 454.876 11137.3 454.906C11137.2 454.935 11136.7 455.068 11135.9 455.54C11135.1 456.015 11133.6 457.019 11131.9 458.878C11129.3 461.708 11127 465.626 11125.5 470.026C11125.8 473.025 11126.6 476.097 11127.8 478.909C11129.8 483.311 11132.2 485.33 11133.1 485.989C11134 486.633 11134.9 487.048 11136.3 487.251C11137.6 487.436 11139.7 487.48 11142.4 486.762C11151.7 482.364 11153.7 475.57 11153.8 474.968C11154 474.236 11155.1 467.928 11150.3 460.465C11146.7 457.387 11143 455.832 11140.7 455.229C11139.2 454.843 11138.2 454.823 11137.9 454.83Z" fill="black" stroke="black" stroke-width="200"/>
<path d="M11975.6 2331.93C11923.8 2382.65 11864.9 2444.69 11805.5 2498.71L11643.6 2645.78L11638.3 2427.12C11636.9 2372.42 11636 2317.23 11636 2261.81V2162.81L11735 2161.82C11791.7 2161.24 11848.3 2160.86 11905 2160.49L12152.3 2158.88L11975.6 2331.93Z" fill="black" stroke="black" stroke-width="200"/>
<path d="M11380.6 288.413C11578.5 287.495 11788.4 278.802 11994.5 288.015C12072.2 287.996 12136.7 337.292 12164.3 401.858L12165 403.412L12170 415.55L12171.8 428.586C12179.7 487.468 12176.4 552.417 12176.7 593.886L12176.7 594.294L12176.7 594.701C12176.1 1228.63 12177 1864.99 12176.3 2499.27C12184.9 2597.96 12105.7 2706.29 11986.9 2696.66C11428.2 2698.15 10868.2 2696.66 10310.4 2697.4C10244.5 2702.13 10147.4 2676.54 10113.3 2576.2L10110.5 2567.81L10109.1 2559.05C10100.1 2499.67 10103.8 2433.92 10103.5 2393.47L10103.5 2392.98L10103.5 2392.49L10103.6 2332.26C10104.7 1709.8 10101.3 1084.19 10105.2 460.816L10105.2 459.04L10105.2 457.266L10105.3 455.46C10107.3 417.576 10120.3 382.353 10144.8 353.715C10168.6 326.009 10197.9 310.553 10222.9 301.722C10268.9 285.448 10318.7 285.494 10347.3 286.318C10529.4 284.809 10716.7 281.2 10903.7 289.455L11028 294.946L10995.8 415.214C10989.1 440.413 10983.3 465.45 10976.6 493.449L10958.4 569.339L10880.4 570.131C10802.2 570.924 10721.7 570.611 10642.9 570.548L10642.3 653.94H10543C10519.9 653.94 10496.8 654.006 10473.7 654.121C10472.8 1212.3 10473.6 1770.16 10473.4 2328.52C10712.6 2332.44 10948.7 2328 11193.5 2329.97C11287.4 2324.45 11381 2326.65 11469.3 2328.35C11547.9 2329.87 11622.8 2331.02 11696.3 2327.17C11733 2292.38 11767.5 2256.86 11805.7 2218.73C11806.4 1697.03 11806.9 1175.65 11805.6 654.169C11782.4 654.196 11759.3 654.241 11736.1 654.318L11635.8 654.655V570.539C11558.2 570.357 11481.4 570.874 11400.3 570.323L11321.1 569.786L11303.5 492.652C11297.1 464.987 11291.3 439.536 11284.5 414.528L11250.6 289.017L11380.6 288.413Z" fill="black" stroke="black" stroke-width="200"/>
<path d="M11071.2 299.95C11135.3 274.792 11202.6 289.624 11249.9 323.597C11297.7 357.993 11334.7 419.757 11323.5 493.755C11316.2 580.038 11250.1 631.087 11191 647.571C11133 663.713 11052.4 655.277 11000.1 591.898C10955 543.345 10947.1 479.355 10959.3 428.303C10971.7 376.565 11008.5 322.719 11071.2 299.95Z" fill="black" stroke="black" stroke-width="200"/>
<path d="M10643.7 453.938L10643 554.587C10642.7 609.067 10643.8 655.572 10644 711.632C10974.3 711.74 11304.8 711.622 11635.2 711.599C11635.3 657.174 11636 608.34 11635.8 554.651L11635.4 454.651L11735.4 454.317C11792.2 454.127 11848.9 454.127 11905.3 454.127H12005L12005.3 553.827C12007 1122.92 12006.4 1691.78 12005.6 2260.62L12005.5 2359.82L11906.3 2360.49C11883.1 2360.64 11860 2360.8 11836.9 2360.97C11837.3 2381.34 11837.7 2401.76 11838.2 2422.26L11840.5 2517.24L11745.8 2524.4C11650.3 2531.62 11555.4 2530.06 11465.4 2528.31C11373.9 2526.55 11287.7 2524.61 11202.1 2529.81L11198.7 2530.02L11195.2 2529.99C10925.8 2527.76 10645.4 2533.75 10370.6 2526.35L10273.3 2523.73L10273.3 2426.33C10273.7 1803 10272.6 1178.61 10273.9 554.671L10274.1 455.881L10372.9 454.888C10429.5 454.319 10486.2 453.938 10543 453.938H10643.7Z" fill="black" stroke="black" stroke-width="200"/>
<path d="M11835.8 624.38L11835.2 724.998C11835 753.771 11835.2 781.58 11835.2 811.59V911.59H11735.2C11338.2 911.59 10940.8 911.779 10543.7 911.59L10443.8 911.542V811.59C10443.8 796.833 10443.8 782.151 10443.9 767.658C10443.9 753.112 10444 738.756 10444 724.38V624.38H11835.8Z" fill="black" stroke="black" stroke-width="200"/>
<path d="M11235.5 1061.26C11236.3 1087.05 11237.3 1123.74 11238.1 1148.7L11241.4 1251.83L11138.3 1251.92C11039 1252.01 10939.8 1252.01 10840.6 1252.01C10766.3 1252.01 10691.9 1252.01 10617.6 1252.05L10543.3 1252.1L10441.9 1252.19L10443.2 1150.83C10443.6 1121.29 10444.2 1092 10444.7 1063.11L10446.7 963.753L10546.1 965.089C10743.8 967.747 10938.1 970.724 11132.4 964.57L11232.2 961.406L11235.5 1061.26Z" fill="black" stroke="black" stroke-width="200"/>
<path d="M11750.6 1315.96C11752.3 1342.45 11754 1368.92 11755.7 1395.38L11762.5 1499.5L11658.1 1501.8C11287.2 1509.94 10910.8 1502.8 10544.3 1505.23L10443.6 1505.9V1222.37H10543.6C10912.7 1222.37 11281.7 1222.56 11650.8 1222.37L11744.6 1222.32L11750.6 1315.96Z" fill="black" stroke="black" stroke-width="200"/>
<path d="M11665.5 1733.14V1833.14C11665.5 1846.75 11665.6 1860.39 11665.6 1874.23C11665.7 1888.01 11665.7 1901.99 11665.7 1916V2016H10443.6V1733.14H11665.5Z" fill="black" stroke="black" stroke-width="200"/>
<path d="M11834.6 1574.75C11835 1603.05 11835.4 1633.87 11835.8 1662.15L11837.1 1763.45H10442.7L10443.4 1662.77L10443.5 1652.49C10443.5 1642.2 10443.6 1631.9 10443.6 1621.49C10443.6 1607.66 10443.7 1593.63 10443.8 1579.53L10444.5 1481.43L10542.5 1480.22C10948.3 1475.19 11332 1484.08 11732.6 1476.07L11833.3 1474.06L11834.6 1574.75Z" fill="black" stroke="black" stroke-width="200"/>
<path d="M10983.7 2084.96C10983.9 2099.44 10984.1 2113.93 10984.4 2128.62C10984.6 2143.25 10984.9 2158.08 10985.1 2172.92L10986.4 2274.22H10441.9L10443.2 2172.96C10443.6 2143.24 10444.2 2113.58 10444.7 2084.32L10446.7 1986.09L10544.9 1986.26C10657.7 1986.45 10770.5 1986.45 10883.6 1986.26L10982.4 1986.09L10983.7 2084.96Z" fill="black" stroke="black" stroke-width="200"/>
</g>
</g>
<mask id="mask2_6721_9727" style="mask-type:luminance" maskUnits="userSpaceOnUse" x="8932" y="202" width="3125" height="2994">
<path d="M11956.1 302V3096H9032V302H11956.1Z" fill="white" stroke="white" stroke-width="200"/>
</mask>
<g mask="url(#mask2_6721_9727)">
<path d="M10026.3 658.593C10064.3 642.494 10103.3 638.725 10141 647.119C10176.8 655.093 10205.2 672.628 10226 688.899C10246.6 704.959 10264.2 723.295 10277.1 737.005C10291 751.786 10299.1 760.847 10307.2 768.451L10308.8 769.954L10312.7 773.44L10316.1 777.299C10339.9 804.065 10364.6 825.401 10398.7 858.38C10429.4 887.994 10464.8 924.591 10492.6 970.655L10493.9 972.856L10503.7 989.315L10506.7 1008.23C10521 1097.55 10475.1 1160.09 10439.4 1197.37C10422.4 1215.11 10402.6 1232.41 10390 1243.83C10375.2 1257.21 10366.7 1265.77 10361.3 1272.82L10357 1278.36L10352 1283.26C10293.6 1340.52 10243.3 1391.17 10205.2 1448.85L10205 1449.09L10204.8 1449.33C10154.7 1524.08 10120.1 1610.85 10097.2 1703.35L10079.3 1775.48L10005.1 1779.19C9663.21 1796.25 9349.99 1490.75 9374.85 1142.68L9380.1 1069.15L9451.89 1052.41C9543.2 1031.12 9629.09 995.839 9703.32 944.935L9704.18 944.345L9705.06 943.773C9762.62 906.042 9813.07 856.242 9871.27 798.241L9872.29 797.219L9873.35 796.229L9875.05 794.617C9892.56 777.975 9906.85 761.714 9929.43 738.194C9950.48 716.263 9976.55 690.566 10008.4 668.473L10016.9 662.612L10026.3 658.593Z" fill="black" stroke="black" stroke-width="200"/>
<path d="M9875.06 725.623C9909.34 724.896 9936.44 737.661 9952.78 747.504C9981.67 764.895 10008.9 794.753 10011.9 797.723L10084 868.546L10012.4 939.897C9956.76 995.4 9892.19 1060.24 9814.68 1111.04L9767.61 1141.9L9716.82 1117.67C9689.74 1104.76 9663.62 1084.1 9646.02 1053.17C9628.53 1022.44 9624.1 989.724 9626.28 960.407L9628.6 929.155L9648.34 904.819C9691.08 852.134 9740.38 806.022 9783.43 765.727C9806.79 742.327 9838.29 726.402 9875.06 725.623Z" fill="black" stroke="black" stroke-width="200"/>
<path d="M10352.3 1140.7C10502.3 1288.85 10651.2 1439.19 10799.6 1587.5C10817.2 1602.49 10840.2 1613.34 10880.5 1631.79C10916.4 1648.21 10969 1671.97 11013 1714.62L11015.1 1716.67L11015.3 1716.88L11015.5 1717.08C11250.3 1952.51 11485.4 2187.56 11720.6 2422.23C11794.2 2484.21 11795.8 2584.08 11766.7 2648.89L11760.6 2662.49L11750.8 2673.73C11702.3 2729.27 11641.5 2785.23 11598.1 2829.58C11556.6 2873.74 11500.1 2887.6 11452.8 2884.36C11407 2881.23 11357.4 2861.51 11322.1 2821.13C11089.6 2589.19 10859.1 2357.56 10626.7 2126.41C10578.2 2081.25 10552.1 2025.28 10534.3 1986.49C10514.3 1943.15 10503.1 1918.52 10486.9 1899.43C10338.8 1752.26 10198.8 1610.93 10051.3 1464.65L9993.1 1406.86L10038.4 1338.46C10089.9 1260.69 10155 1196.32 10212 1140.45L10282.3 1071.58L10352.3 1140.7Z" fill="black" stroke="black" stroke-width="200"/>
<path d="M9574.35 1156.94C9558.35 1380.93 9768.77 1590.74 9995.14 1579.43L10119.9 1573.2L10098.7 1696.29C10090.1 1746.14 10086.1 1797.18 10085.8 1849.29L10085.1 1944.72L9989.75 1948.54C9567.54 1965.43 9187.01 1587.34 9203.47 1164.08L9207.21 1067.97H9303.4C9352.73 1067.97 9403.21 1061.65 9455.82 1051.59L9583.62 1027.15L9574.35 1156.94Z" fill="black" stroke="black" stroke-width="200"/>
</g>
<mask id="mask3_6721_9727" style="mask-type:luminance" maskUnits="userSpaceOnUse" x="9778" y="46" width="2499" height="2725">
<path d="M12277 46H9778V2770.12H12277V46Z" fill="white"/>
</mask>
<g mask="url(#mask3_6721_9727)">
<path d="M10899.2 389.349C10937.8 264.872 11079.7 190.526 11205.1 224.577C11285 246.711 11354.8 309.328 11381.1 388.403C11388.4 415.644 11394.7 443.075 11400.9 470.316C11512.4 471.073 11623.8 469.748 11735.2 471.262C11735.4 498.881 11735.8 526.69 11735.8 554.31C11736 611.062 11735.2 667.815 11735.2 724.378C11338.1 724.378 10941 724.378 10544 724.378C10544 667.626 10542.6 610.873 10543 553.931C10543.2 526.312 10543.8 498.503 10544.2 470.694C10656 470.127 10767.6 471.262 10879.4 470.127C10885.8 443.264 10892.1 416.212 10899.2 389.349ZM11106.6 393.511C11054.4 411.482 11035.8 486.396 11075.4 525.933C11117 580.227 11220.8 553.742 11224.1 482.045C11236.4 417.725 11164.1 369.864 11106.6 393.511Z" fill="#CCCCCC"/>
<path d="M11736 2261.81C11792.5 2261.24 11848.9 2260.86 11905.6 2260.49C11849.8 2315.16 11796.1 2372.1 11738.2 2424.69C11736.9 2370.4 11736 2316.1 11736 2261.81Z" fill="#CCCCCC"/>
<path d="M10205.2 461.433C10208.2 388.79 10291.2 384.628 10346.3 386.331C10530.5 384.817 10715 381.223 10899.2 389.358C10892.1 416.221 10885.8 443.273 10879.4 470.136C10767.6 471.271 10656 470.136 10544.2 470.703C10543.8 498.512 10543.2 526.321 10543 553.94C10486.7 553.94 10430.3 554.319 10373.9 554.886C10372.6 1178.79 10373.7 1802.69 10373.3 2426.4C10647.6 2433.77 10921.8 2427.72 11196.1 2429.99C11376.7 2419.02 11558.1 2438.31 11738.2 2424.69C11796.1 2372.1 11849.8 2315.16 11905.7 2260.49C11906.4 1691.64 11907 1122.98 11905.3 554.129C11848.9 554.129 11792.3 554.129 11735.8 554.319C11735.8 526.699 11735.4 498.89 11735.2 471.271C11623.8 469.757 11512.4 471.081 11400.9 470.325C11394.7 443.083 11388.4 415.653 11381.1 388.412C11585 387.466 11788.9 378.764 11992.7 388.033C12027.9 387.277 12059.3 409.789 12072.7 441.948C12079.5 492.458 12076.3 543.725 12076.7 594.613C12076.1 1231.19 12077 1867.95 12076.3 2504.53C12083.1 2553.33 12042.2 2602.71 11991.5 2596.65C11429.7 2598.17 10867.8 2596.65 10306.2 2597.41C10265.5 2601.57 10222.2 2585.87 10208 2544.06C10200.4 2494.12 10203.8 2443.23 10203.5 2392.72C10205 1748.96 10201.2 1105.01 10205.2 461.433Z" fill="#BB9167"/>
<path d="M11106.6 393.515C11164.1 369.869 11236.4 417.73 11224.1 482.049C11220.8 553.747 11117 580.231 11075.4 525.938C11035.8 486.401 11054.4 411.487 11106.6 393.515Z" fill="#BB9167"/>
<path d="M10373.9 554.883C10430.3 554.316 10486.6 553.938 10543 553.938C10542.6 610.879 10544 667.632 10544 724.384C10544 753.517 10543.8 782.461 10543.8 811.594C10940.9 811.783 11338.1 811.594 11735.2 811.594C11735.2 782.461 11735 753.517 11735.2 724.384C11735.2 667.821 11736 611.068 11735.8 554.316C11792.3 554.127 11848.9 554.127 11905.3 554.127C11907 1122.98 11906.4 1691.64 11905.6 2260.49C11848.9 2260.87 11792.5 2261.24 11736 2261.81C11736 2316.1 11736.9 2370.4 11738.2 2424.69C11558.1 2438.31 11376.7 2419.02 11196.1 2429.99C10921.7 2427.72 10647.6 2433.77 10373.3 2426.39C10373.7 1802.68 10372.6 1178.78 10373.9 554.883ZM10544.7 1065.09C10544.2 1094.03 10543.6 1122.98 10543.2 1152.11C10741.5 1151.92 10939.7 1152.11 11138.2 1151.92C11137.2 1122.79 11136.5 1093.65 11135.5 1064.52C10938.6 1070.76 10741.8 1067.74 10544.7 1065.09ZM10543.6 1322.37V1405.23C10914.4 1402.77 11285.3 1409.96 11655.9 1401.82C11654.2 1375.34 11652.5 1348.85 11650.8 1322.37C11281.7 1322.56 10912.7 1322.37 10543.6 1322.37ZM10543.8 1580.21C10543.6 1608.02 10543.6 1635.64 10543.4 1663.45H11735.8C11735.4 1634.32 11735 1605.18 11734.6 1576.05C11337.6 1584 10940.9 1575.29 10543.8 1580.21ZM10543.6 1833.14V1916H11565.7C11565.7 1888.38 11565.5 1860.76 11565.5 1833.14C11225 1833.14 10884.3 1833.14 10543.6 1833.14ZM10544.7 2086.26C10544.2 2115.58 10543.6 2144.9 10543.2 2174.22H10885C10884.7 2144.9 10884.1 2115.58 10883.7 2086.26C10770.6 2086.45 10657.7 2086.45 10544.7 2086.26Z" fill="#F2F2F2"/>
<path d="M10544 724.38H11735.2C11735 753.513 11735.2 782.457 11735.2 811.59C11338.1 811.59 10940.9 811.779 10543.8 811.59C10543.8 782.457 10544 753.513 10544 724.38Z" fill="#757575"/>
<path d="M10544.7 1065.08C10741.8 1067.73 10938.6 1070.76 11135.5 1064.52C11136.5 1093.65 11137.2 1122.78 11138.2 1151.92C10939.7 1152.1 10741.5 1151.92 10543.2 1152.1C10543.6 1122.97 10544.2 1094.03 10544.7 1065.08Z" fill="#373737"/>
<path d="M10543.6 1322.37C10912.7 1322.37 11281.8 1322.56 11650.8 1322.37C11652.5 1348.85 11654.2 1375.34 11655.9 1401.82C11285.3 1409.96 10914.4 1402.77 10543.6 1405.23C10543.6 1377.61 10543.6 1349.99 10543.6 1322.37Z" fill="#363636"/>
<path d="M10543.6 1833.14H11565.5C11565.5 1860.76 11565.7 1888.38 11565.7 1916C11225 1916 10884.3 1916 10543.6 1916C10543.6 1888.38 10543.6 1860.76 10543.6 1833.14Z" fill="#363636"/>
<path d="M10543.8 1580.21C10940.9 1575.29 11337.6 1583.99 11734.6 1576.05C11735 1605.18 11735.4 1634.31 11735.8 1663.45C11338.3 1663.45 10940.9 1663.45 10543.4 1663.45C10543.6 1635.64 10543.6 1608.02 10543.8 1580.21Z" fill="#383838"/>
<path d="M10544.7 2086.26C10657.7 2086.45 10770.6 2086.45 10883.7 2086.26C10884.1 2115.58 10884.7 2144.9 10885.1 2174.22C10771.2 2174.22 10657.1 2174.22 10543.2 2174.22C10543.6 2144.9 10544.2 2115.58 10544.7 2086.26Z" fill="#383838"/>
</g>
<mask id="mask4_6721_9727" style="mask-type:luminance" maskUnits="userSpaceOnUse" x="9132" y="402" width="2725" height="2594">
<path d="M11855.6 402.5V2995.5H9132.5V402.5H11855.6Z" fill="white" stroke="white"/>
</mask>
<g mask="url(#mask4_6721_9727)">
<path d="M10065.4 750.645C10144.3 717.161 10192.1 798.695 10241.3 843.719C10295.6 904.823 10366 953.441 10408 1024C10421.8 1110.46 10327.4 1152.83 10282 1211.85C10224.3 1268.42 10166.6 1325.93 10121.8 1393.65C10063.7 1480.29 10025.1 1578.48 10000.1 1679.31C9715.99 1693.49 9454.17 1435.84 9474.6 1149.8C9576 1126.16 9673.8 1086.43 9759.88 1027.41C9827.41 983.141 9884.92 925.821 9941.86 869.069C9983.29 830.099 10018.5 783.183 10065.4 750.645Z" fill="#F03A17"/>
<path d="M9853.32 837.288C9884.15 804.75 9920.66 848.26 9941.85 869.069C9884.91 925.822 9827.4 983.142 9759.86 1027.41C9735.27 1015.68 9723.92 995.817 9726 967.819C9764.21 920.714 9809.05 878.717 9853.32 837.288Z" fill="#EBA300"/>
<path d="M10121.8 1393.66C10166.6 1325.93 10224.3 1268.42 10282 1211.86C10432.6 1360.55 10581.5 1510.95 10731.3 1660.58C10793.7 1716.2 10884.7 1728.31 10944.7 1787.71C11180.8 2024.37 11417.1 2260.65 11653.5 2496.55C11686.6 2522.28 11691.9 2571.27 11675.5 2607.97C11628.7 2661.51 11575.6 2709.56 11525.8 2760.45C11492.4 2796.96 11426.1 2790.72 11395.7 2753.26C11162.2 2520.39 10929.7 2286.75 10695.9 2054.26C10629.9 1993.72 10618.4 1896.86 10559.9 1831.03C10413.5 1685.55 10268.2 1538.94 10121.8 1393.66Z" fill="#EBA300"/>
<path d="M9303.4 1167.97C9361.1 1167.97 9418.23 1160.59 9474.6 1149.81C9454.17 1435.84 9715.99 1693.5 10000.1 1679.31C9990.48 1735.3 9986.13 1791.87 9985.75 1848.62C9621.59 1863.19 9289.21 1532.7 9303.4 1167.97Z" fill="#E5E5E5"/>
</g>
<defs>
<filter id="filter0_d_6721_9727" x="115.078" y="914.656" width="8790.71" height="1222.88" filterUnits="userSpaceOnUse" color-interpolation-filters="sRGB">
<feFlood flood-opacity="0" result="BackgroundImageFix"/>
<feColorMatrix in="SourceAlpha" type="matrix" values="0 0 0 0 0 0 0 0 0 0 0 0 0 0 0 0 0 0 127 0" result="hardAlpha"/>
<feOffset dx="56.6149" dy="56.6149"/>
<feComposite in2="hardAlpha" operator="out"/>
<feColorMatrix type="matrix" values="0 0 0 0 0.117647 0 0 0 0 0.203922 0 0 0 0 0.270588 0 0 0 1 0"/>
<feBlend mode="normal" in2="BackgroundImageFix" result="effect1_dropShadow_6721_9727"/>
<feBlend mode="normal" in="SourceGraphic" in2="effect1_dropShadow_6721_9727" result="shape"/>
</filter>
</defs>
</svg>
