<svg width="237" height="51" viewBox="0 0 237 51" fill="none" xmlns="http://www.w3.org/2000/svg">
<rect x="0.691895" y="0.758301" width="235.514" height="49.4476" rx="7.44759" fill="white"/>
<path d="M11.285 37.4819C11.0467 37.4819 10.8322 37.3985 10.6415 37.2317C10.4509 37.041 10.3556 36.8146 10.3556 36.5525V13.3875C10.3556 13.1253 10.4509 12.9109 10.6415 12.744C10.8322 12.5534 11.0467 12.458 11.285 12.458H21.7236C23.797 12.458 25.5963 12.7679 27.1216 13.3875C28.6707 14.0071 29.8742 14.9485 30.7322 16.2116C31.5901 17.4747 32.0191 19.0596 32.0191 20.9662C32.0191 22.8727 31.5901 24.4457 30.7322 25.685C29.8742 26.9004 28.6707 27.7941 27.1216 28.3661C25.5963 28.9381 23.797 29.224 21.7236 29.224H18.3275V36.5525C18.3275 36.8146 18.2321 37.041 18.0415 37.2317C17.8746 37.3985 17.6602 37.4819 17.398 37.4819H11.285ZM18.1845 23.4686H21.5448C22.236 23.4686 22.8198 23.266 23.2965 22.8608C23.797 22.4318 24.0472 21.7765 24.0472 20.8947C24.0472 20.2274 23.8565 19.6196 23.4752 19.0715C23.0939 18.5234 22.4504 18.2493 21.5448 18.2493H18.1845V23.4686ZM36.0017 37.4819C35.7634 37.4819 35.5489 37.3985 35.3582 37.2317C35.1676 37.041 35.0722 36.8146 35.0722 36.5525V13.3875C35.0722 13.1253 35.1676 12.9109 35.3582 12.744C35.5489 12.5534 35.7634 12.458 36.0017 12.458H46.19C49.4312 12.458 51.9693 13.1968 53.8044 14.6744C55.6633 16.152 56.5928 18.2135 56.5928 20.8589C56.5928 22.5272 56.2115 23.9452 55.4488 25.113C54.6862 26.2808 53.6853 27.1983 52.446 27.8656L57.0933 36.3022C57.1648 36.4452 57.2005 36.5763 57.2005 36.6955C57.2005 36.91 57.129 37.1006 56.986 37.2674C56.843 37.4104 56.6643 37.4819 56.4498 37.4819H50.4083C49.9555 37.4819 49.6099 37.3747 49.3716 37.1602C49.1333 36.9219 48.9784 36.7074 48.9069 36.5167L45.332 29.1526H42.7582V36.5525C42.7582 36.8146 42.6628 37.041 42.4722 37.2317C42.3053 37.3985 42.0909 37.4819 41.8287 37.4819H36.0017ZM42.7582 23.2541H46.1543C46.9884 23.2541 47.608 23.0277 48.0132 22.5748C48.4183 22.0982 48.6209 21.5143 48.6209 20.8232C48.6209 20.1082 48.4183 19.5005 48.0132 19C47.6319 18.4995 47.0122 18.2493 46.1543 18.2493H42.7582V23.2541ZM59.0606 37.4819C58.8461 37.4819 58.6554 37.4104 58.4886 37.2674C58.3456 37.1006 58.2741 36.91 58.2741 36.6955C58.2741 36.6001 58.2979 36.5167 58.3456 36.4452L66.4962 13.5662C66.5677 13.3041 66.7226 13.0538 66.961 12.8155C67.2231 12.5772 67.5687 12.458 67.9977 12.458H74.5396C74.9924 12.458 75.338 12.5772 75.5763 12.8155C75.8146 13.0538 75.9696 13.3041 76.0411 13.5662L84.2274 36.4452C84.2513 36.5167 84.2632 36.6001 84.2632 36.6955C84.2632 36.91 84.1798 37.1006 84.013 37.2674C83.87 37.4104 83.6912 37.4819 83.4767 37.4819H77.9715C77.5663 37.4819 77.2684 37.3866 77.0778 37.1959C76.8871 37.0053 76.756 36.8265 76.6845 36.6597L75.5763 33.6569H66.961L65.8528 36.6597C65.7813 36.8265 65.6502 37.0053 65.4595 37.1959C65.2927 37.3866 64.9948 37.4819 64.5658 37.4819H59.0606ZM68.6054 27.6154H73.9319L71.2508 19.572L68.6054 27.6154ZM90.8906 37.4819C90.6285 37.4819 90.402 37.3985 90.2114 37.2317C90.0446 37.041 89.9612 36.8146 89.9612 36.5525V29.1883L81.8105 13.5662C81.7867 13.5186 81.7628 13.4709 81.739 13.4232C81.7152 13.3517 81.7033 13.2922 81.7033 13.2445C81.7033 13.03 81.7748 12.8513 81.9178 12.7083C82.0846 12.5415 82.2752 12.458 82.4897 12.458H88.0665C88.4955 12.458 88.8172 12.5653 89.0317 12.7798C89.2462 12.9943 89.3892 13.1611 89.4607 13.2803L93.822 21.5024L98.1833 13.2803C98.231 13.1611 98.362 12.9943 98.5765 12.7798C98.791 12.5653 99.1127 12.458 99.5417 12.458H105.154C105.345 12.458 105.512 12.5415 105.655 12.7083C105.822 12.8513 105.905 13.03 105.905 13.2445C105.905 13.2922 105.893 13.3517 105.869 13.4232C105.869 13.4709 105.857 13.5186 105.833 13.5662L97.6471 29.1883V36.5525C97.6471 36.8146 97.5517 37.041 97.3611 37.2317C97.1942 37.3985 96.9798 37.4819 96.7176 37.4819H90.8906ZM118.063 37.8394C115.775 37.8394 113.785 37.4819 112.093 36.767C110.425 36.052 109.102 34.9795 108.125 33.5496C107.172 32.0958 106.66 30.2965 106.588 28.1516C106.564 27.1506 106.552 26.1259 106.552 25.0772C106.552 24.0048 106.564 22.9442 106.588 21.8956C106.66 19.7745 107.172 17.9871 108.125 16.5334C109.102 15.0796 110.437 13.9833 112.129 13.2445C113.821 12.4819 115.799 12.1006 118.063 12.1006C120.304 12.1006 122.27 12.4819 123.962 13.2445C125.654 13.9833 126.989 15.0796 127.966 16.5334C128.943 17.9871 129.455 19.7745 129.503 21.8956C129.55 22.9442 129.574 24.0048 129.574 25.0772C129.574 26.1259 129.55 27.1506 129.503 28.1516C129.431 30.2965 128.907 32.0958 127.93 33.5496C126.977 34.9795 125.654 36.052 123.962 36.767C122.294 37.4819 120.327 37.8394 118.063 37.8394ZM118.063 31.7622C119.064 31.7622 119.886 31.4643 120.53 30.8685C121.173 30.2488 121.507 29.2717 121.531 27.9371C121.579 26.9123 121.602 25.9233 121.602 24.97C121.602 23.9929 121.579 23.0038 121.531 22.0029C121.507 21.1211 121.34 20.3942 121.03 19.8222C120.744 19.2502 120.339 18.8332 119.815 18.571C119.315 18.3089 118.731 18.1778 118.063 18.1778C117.396 18.1778 116.8 18.3089 116.276 18.571C115.752 18.8332 115.335 19.2502 115.025 19.8222C114.739 20.3942 114.584 21.1211 114.56 22.0029C114.536 23.0038 114.524 23.9929 114.524 24.97C114.524 25.9233 114.536 26.9123 114.56 27.9371C114.608 29.2717 114.941 30.2488 115.561 30.8685C116.204 31.4643 117.039 31.7622 118.063 31.7622ZM144.144 37.8394C141.785 37.8394 139.759 37.4819 138.067 36.767C136.375 36.0282 135.052 34.9319 134.099 33.4781C133.145 32.0243 132.633 30.225 132.562 28.0801C132.538 27.0791 132.526 26.0067 132.526 24.8627C132.526 23.695 132.538 22.5987 132.562 21.5739C132.633 19.5005 133.145 17.7607 134.099 16.3546C135.076 14.9485 136.422 13.888 138.138 13.173C139.854 12.458 141.856 12.1006 144.144 12.1006C145.979 12.1006 147.612 12.315 149.042 12.744C150.471 13.173 151.687 13.7569 152.688 14.4957C153.713 15.2345 154.487 16.0686 155.012 16.9981C155.56 17.9037 155.846 18.8451 155.87 19.8222C155.87 20.0367 155.786 20.2274 155.619 20.3942C155.476 20.5372 155.298 20.6087 155.083 20.6087H148.505C148.267 20.6087 148.076 20.5729 147.933 20.5014C147.79 20.4061 147.659 20.2869 147.54 20.1439C147.421 19.9056 147.23 19.6316 146.968 19.3217C146.73 19.0119 146.384 18.7498 145.931 18.5353C145.479 18.2969 144.883 18.1778 144.144 18.1778C143.024 18.1778 142.154 18.4638 141.534 19.0357C140.915 19.6077 140.581 20.5133 140.533 21.7526C140.462 23.7545 140.462 25.8041 140.533 27.9014C140.581 29.2598 140.927 30.2488 141.57 30.8685C142.237 31.4643 143.131 31.7622 144.251 31.7622C144.99 31.7622 145.645 31.643 146.217 31.4047C146.813 31.1664 147.278 30.797 147.612 30.2965C147.945 29.7722 148.112 29.1049 148.112 28.2946V27.9371H145.574C145.312 27.9371 145.085 27.8418 144.895 27.6511C144.728 27.4605 144.645 27.246 144.645 27.0076V23.683C144.645 23.4209 144.728 23.2064 144.895 23.0396C145.085 22.8489 145.312 22.7536 145.574 22.7536H154.976C155.238 22.7536 155.464 22.8489 155.655 23.0396C155.846 23.2064 155.941 23.4209 155.941 23.683V28.0444C155.941 30.1416 155.441 31.9171 154.44 33.3709C153.439 34.8246 152.056 35.9328 150.293 36.6955C148.529 37.4581 146.48 37.8394 144.144 37.8394ZM157.718 37.4819C157.503 37.4819 157.313 37.4104 157.146 37.2674C157.003 37.1006 156.931 36.91 156.931 36.6955C156.931 36.6001 156.955 36.5167 157.003 36.4452L165.153 13.5662C165.225 13.3041 165.38 13.0538 165.618 12.8155C165.88 12.5772 166.226 12.458 166.655 12.458H173.197C173.65 12.458 173.995 12.5772 174.234 12.8155C174.472 13.0538 174.627 13.3041 174.698 13.5662L182.885 36.4452C182.909 36.5167 182.92 36.6001 182.92 36.6955C182.92 36.91 182.837 37.1006 182.67 37.2674C182.527 37.4104 182.348 37.4819 182.134 37.4819H176.629C176.224 37.4819 175.926 37.3866 175.735 37.1959C175.544 37.0053 175.413 36.8265 175.342 36.6597L174.234 33.6569H165.618L164.51 36.6597C164.439 36.8265 164.307 37.0053 164.117 37.1959C163.95 37.3866 163.652 37.4819 163.223 37.4819H157.718ZM167.263 27.6154H172.589L169.908 19.572L167.263 27.6154Z" fill="#2F3136"/>
<rect x="186.863" y="7.7583" width="41.8952" height="35.4476" rx="7.44759" fill="#2F3136"/>
<path d="M196.313 33.4819C196.154 33.4819 196.019 33.4263 195.908 33.3151C195.797 33.2039 195.741 33.0688 195.741 32.91V30.5506C195.741 30.3758 195.797 30.2328 195.908 30.1216C196.019 30.0104 196.154 29.9548 196.313 29.9548H198.696C198.855 29.9548 198.99 30.0104 199.101 30.1216C199.213 30.2328 199.268 30.3758 199.268 30.5506V32.91C199.268 33.0688 199.213 33.2039 199.101 33.3151C198.99 33.4263 198.855 33.4819 198.696 33.4819H196.313ZM202.833 33.4819C202.674 33.4819 202.539 33.4263 202.428 33.3151C202.317 33.2039 202.261 33.0688 202.261 32.91V21.6611C202.261 21.5022 202.317 21.3672 202.428 21.256C202.539 21.1448 202.674 21.0891 202.833 21.0891H204.811C204.986 21.0891 205.121 21.1448 205.216 21.256C205.327 21.3672 205.383 21.5022 205.383 21.6611V32.91C205.383 33.0688 205.327 33.2039 205.216 33.3151C205.121 33.4263 204.986 33.4819 204.811 33.4819H202.833ZM202.738 19.0396C202.563 19.0396 202.42 18.9919 202.309 18.8966C202.213 18.7854 202.166 18.6424 202.166 18.4676V16.7517C202.166 16.5928 202.213 16.4577 202.309 16.3465C202.42 16.2353 202.563 16.1797 202.738 16.1797H204.906C205.081 16.1797 205.224 16.2353 205.335 16.3465C205.447 16.4577 205.502 16.5928 205.502 16.7517V18.4676C205.502 18.6424 205.447 18.7854 205.335 18.8966C205.224 18.9919 205.081 19.0396 204.906 19.0396H202.738ZM214.096 33.7203C212.825 33.7203 211.753 33.4978 210.879 33.053C210.021 32.6081 209.361 31.9805 208.901 31.1702C208.456 30.3599 208.202 29.4146 208.138 28.3342C208.122 28.0482 208.114 27.6986 208.114 27.2855C208.114 26.8724 208.122 26.5229 208.138 26.2369C208.202 25.1406 208.464 24.1953 208.925 23.4009C209.401 22.5906 210.068 21.963 210.926 21.5181C211.8 21.0733 212.857 20.8508 214.096 20.8508C215.335 20.8508 216.384 21.0733 217.242 21.5181C218.116 21.963 218.783 22.5906 219.244 23.4009C219.721 24.1953 219.991 25.1406 220.054 26.2369C220.07 26.5229 220.078 26.8724 220.078 27.2855C220.078 27.6986 220.07 28.0482 220.054 28.3342C219.991 29.4146 219.728 30.3599 219.268 31.1702C218.823 31.9805 218.163 32.6081 217.29 33.053C216.432 33.4978 215.367 33.7203 214.096 33.7203ZM214.096 31.3609C214.938 31.3609 215.59 31.0987 216.05 30.5744C216.511 30.0342 216.765 29.2477 216.813 28.215C216.829 27.9767 216.837 27.6669 216.837 27.2855C216.837 26.9042 216.829 26.5944 216.813 26.3561C216.765 25.3392 216.511 24.5607 216.05 24.0205C215.59 23.4803 214.938 23.2102 214.096 23.2102C213.254 23.2102 212.603 23.4803 212.142 24.0205C211.681 24.5607 211.427 25.3392 211.379 26.3561C211.363 26.5944 211.355 26.9042 211.355 27.2855C211.355 27.6669 211.363 27.9767 211.379 28.215C211.427 29.2477 211.681 30.0342 212.142 30.5744C212.603 31.0987 213.254 31.3609 214.096 31.3609Z" fill="#5865F2"/>
</svg>
